{
	"asset":{
		"generator":"Khronos glTF Blender I/O v4.4.56",
		"version":"2.0"
	},
	"scene":0,
	"scenes":[
		{
			"name":"Scene",
			"nodes":[
				0,
				1
			]
		}
	],
	"nodes":[
		{
			"mesh":0,
			"name":"BGR.001"
		},
		{
			"mesh":1,
			"name":"Sphere",
			"scale":[
				0.10000002384185791,
				0.10000002384185791,
				0.10000002384185791
			],
			"translation":[
				0,
				0.07000000029802322,
				0
			]
		}
	],
	"materials":[
		{
			"alphaMode":"BLEND",
			"doubleSided":true,
			"name":"BGR",
			"pbrMetallicRoughness":{
				"baseColorTexture":{
					"index":0
				},
				"metallicFactor":0,
				"roughnessFactor":0.5
			}
		}
	],
	"meshes":[
		{
			"name":"BGR",
			"primitives":[
				{
					"attributes":{
						"POSITION":0,
						"NORMAL":1,
						"TEXCOORD_0":2
					},
					"indices":3,
					"material":0
				}
			]
		},
		{
			"name":"Sphere",
			"primitives":[
				{
					"attributes":{
						"POSITION":4,
						"NORMAL":5,
						"TEXCOORD_0":6
					},
					"indices":7
				}
			]
		}
	],
	"textures":[
		{
			"sampler":0,
			"source":0
		}
	],
	"images":[
		{
			"mimeType":"image/png",
			"name":"JKF_02",
			"uri":"JKF_02.png"
		}
	],
	"accessors":[
		{
			"bufferView":0,
			"componentType":5126,
			"count":4,
			"max":[
				2.4876112937927246,
				0,
				1.8492966890335083
			],
			"min":[
				-2.4686522483825684,
				0,
				-1.8685555458068848
			],
			"type":"VEC3"
		},
		{
			"bufferView":1,
			"componentType":5126,
			"count":4,
			"type":"VEC3"
		},
		{
			"bufferView":2,
			"componentType":5126,
			"count":4,
			"type":"VEC2"
		},
		{
			"bufferView":3,
			"componentType":5123,
			"count":6,
			"type":"SCALAR"
		},
		{
			"bufferView":4,
			"componentType":5126,
			"count":1984,
			"max":[
				0.9999997019767761,
				1,
				0.9999993443489075
			],
			"min":[
				-0.9999990463256836,
				-1,
				-1
			],
			"type":"VEC3"
		},
		{
			"bufferView":5,
			"componentType":5126,
			"count":1984,
			"type":"VEC3"
		},
		{
			"bufferView":6,
			"componentType":5126,
			"count":1984,
			"type":"VEC2"
		},
		{
			"bufferView":7,
			"componentType":5123,
			"count":2880,
			"type":"SCALAR"
		}
	],
	"bufferViews":[
		{
			"buffer":0,
			"byteLength":48,
			"byteOffset":0,
			"target":34962
		},
		{
			"buffer":0,
			"byteLength":48,
			"byteOffset":48,
			"target":34962
		},
		{
			"buffer":0,
			"byteLength":32,
			"byteOffset":96,
			"target":34962
		},
		{
			"buffer":0,
			"byteLength":12,
			"byteOffset":128,
			"target":34963
		},
		{
			"buffer":0,
			"byteLength":23808,
			"byteOffset":140,
			"target":34962
		},
		{
			"buffer":0,
			"byteLength":23808,
			"byteOffset":23948,
			"target":34962
		},
		{
			"buffer":0,
			"byteLength":15872,
			"byteOffset":47756,
			"target":34962
		},
		{
			"buffer":0,
			"byteLength":5760,
			"byteOffset":63628,
			"target":34963
		}
	],
	"samplers":[
		{
			"magFilter":9729,
			"minFilter":9987,
			"wrapS":33071,
			"wrapT":33071
		}
	],
	"buffers":[
		{
			"byteLength":69388,
			"uri":"Airport_02.bin"
		}
	]
}
